<svg fill="none" height="20" viewBox="0 0 20 20" width="20" xmlns="http://www.w3.org/2000/svg"><path d="m10.6 13.15c-.1171.1172-.276.1832-.4417.1833h-.31668c-.16534-.0019-.32356-.0676-.44166-.1833l-4.275-4.28336c-.07888-.07823-.12325-.18473-.12325-.29583s.04437-.2176.12325-.29584l.59166-.59166c.07681-.07839.18193-.12256.29167-.12256s.21487.04417.29167.12256l3.7 3.70829 3.70004-3.70829c.0782-.07888.1847-.12325.2958-.12325s.2176.04437.2958.12325l.5834.59166c.0788.07824.1232.18474.1232.29584s-.0444.2176-.1232.29583z" fill="#fff"/></svg>