<svg fill="none" height="24" viewBox="0 0 24 24" width="24" xmlns="http://www.w3.org/2000/svg"><path d="m19 7.98302h-3.55c.356-.60744.5457-1.29814.55-2.00243h3c0-1.10591-.8954-2.00242-2-2.00242h-1.55c-.7181-1.22542-2.0309-1.97817-3.45-1.97817s-2.73188.75275-3.45 1.97817h-2.55c-1.65685 0-3 1.34477-3 3.00364v13.01579c0 1.1059.89543 2.0024 2 2.0024h14c1.1046 0 2-.8965 2-2.0024v-10.01215c0-1.10591-.8954-2.00243-2-2.00243zm-7-4.00485c1.1046 0 2 .89651 2 2.00242s-.8954 2.00243-2 2.00243-2-.89652-2-2.00243.8954-2.00242 2-2.00242zm-4 2.00242h-2c-.55228 0-1 .44826-1 1.00122 0 .55295.44772 1.00121 1 1.00121h2.55c-.35601-.60744-.54572-1.29814-.55-2.00243zm11 6.00731h-7c-.5523 0-1 .4482-1 1.0012v4.0048c0 .553.4477 1.0012 1 1.0012h7v2.0025h-14v-10.01215h14zm-4 3.5042v-1.0012c0-.2765-.2239-.5006-.5-.5006h-1c-.2761 0-.5.2241-.5.5006v1.0012c0 .2765.2239.5006.5.5006h1c.2761 0 .5-.2241.5-.5006z" fill="#f06595"/></svg>