<svg fill="none" height="24" viewBox="0 0 24 24" width="24" xmlns="http://www.w3.org/2000/svg"><path d="m19 19h2.5c.2761 0 .5.2239.5.5v1c0 .2761-.2239.5-.5.5h-19c-.27614 0-.5-.2239-.5-.5v-1c0-.2761.22386-.5.5-.5h2.5v-9c0-.55228.44772-1 1-1h1v-5c0-.55228.44772-1 1-1h8c.5523 0 1 .44772 1 1v5h1c.5523 0 1 .44772 1 1zm-12-.5c0 .2761.22386.5.5.5h1c.27614 0 .5-.2239.5-.5v-1c0-.2761-.22386-.5-.5-.5h-1c-.27614 0-.5.2239-.5.5zm.5-3.5c-.27614 0-.5-.2239-.5-.5v-1c0-.2761.22386-.5.5-.5h1c.27614 0 .5.2239.5.5v1c0 .2761-.22386.5-.5.5zm4 4h1c.2761 0 .5-.2239.5-.5v-1c0-.2761-.2239-.5-.5-.5h-1c-.2761 0-.5.2239-.5.5v1c0 .2761.2239.5.5.5zm1-4h-1c-.2761 0-.5-.2239-.5-.5v-1c0-.2761.2239-.5.5-.5h1c.2761 0 .5.2239.5.5v1c0 .2761-.2239.5-.5.5zm.38-6.12h1.62c.2761 0 .5-.22386.5-.5v-.76c0-.27614-.2239-.5-.5-.5h-1.62v-1.62c0-.27614-.2239-.5-.5-.5h-.76c-.2761 0-.5.22386-.5.5v1.62h-1.62c-.27614 0-.5.22386-.5.5v.76c0 .27614.22386.5.5.5h1.62v1.62c0 .2761.2239.5.5.5h.76c.2761 0 .5-.2239.5-.5zm2.62 10.12c-.2761 0-.5-.2239-.5-.5v-1c0-.2761.2239-.5.5-.5h1c.2761 0 .5.2239.5.5v1c0 .2761-.2239.5-.5.5zm0-4h1c.2761 0 .5-.2239.5-.5v-1c0-.2761-.2239-.5-.5-.5h-1c-.2761 0-.5.2239-.5.5v1c0 .2761.2239.5.5.5z" fill="#fcc419"/></svg>