<svg fill="none" height="24" viewBox="0 0 24 24" width="24" xmlns="http://www.w3.org/2000/svg"><path d="m21 4h-5.11c-1.3924.02219-2.761.36435-4 1l-.62.31c-.9842.47603-2.06699.71247-3.16.69h-5.11c-.55228 0-1 .44772-1 1v12c0 .5523.44772 1 1 1h5.11c1.38843-.0067 2.7568-.3317 4-.95l.62-.31c.9799-.4933 2.0629-.7469 3.16-.74h5.11c.5523 0 1-.4477 1-1v-12c0-.55228-.4477-1-1-1zm-1 9c-1.6569 0-3 1.3431-3 3h-1.11c-1.3883.0077-2.7565.3327-4 .95l-.62.31c-.9816.4887-2.06349.7421-3.16.74h-1.11c0-1.6569-1.34315-3-3-3v-4c1.65685 0 3-1.34315 3-3h1.11c1.39223-.02326 2.7606-.36535 4-1l.62-.31c.9857-.47144 2.0675-.70764 3.16-.69h1.11c0 1.65685 1.3431 3 3 3zm-8 2c1.6569 0 3-1.3431 3-3s-1.3431-3-3-3-3 1.3431-3 3 1.3431 3 3 3z" fill="#ff922b"/></svg>